<svg width="9" height="5" viewBox="0 0 9 5" fill="none" xmlns="http://www.w3.org/2000/svg">
<path fill-rule="evenodd" clip-rule="evenodd" d="M4.61539 4.36364C4.54859 4.36364 4.4895 4.33864 4.43812 4.28866L0.846318 0.794751C0.794933 0.744767 0.76924 0.687285 0.76924 0.622305C0.76924 0.557325 0.794933 0.499844 0.846318 0.449859L1.2317 0.0749762C1.28309 0.0249916 1.34218 -3.23645e-07 1.40898 -3.20609e-07C1.47578 -3.17572e-07 1.53487 0.0249916 1.58626 0.0749763L4.61539 3.02156L7.64453 0.0749765C7.69591 0.0249919 7.75501 -3.21193e-08 7.82181 -2.90825e-08C7.88861 -2.60458e-08 7.9477 0.0249919 7.99908 0.0749765L8.38447 0.449859C8.43586 0.499844 8.46155 0.557325 8.46155 0.622306C8.46155 0.687286 8.43586 0.744767 8.38447 0.794752L4.79267 4.28866C4.74129 4.33864 4.68219 4.36364 4.61539 4.36364Z" fill="#25262D"/>
</svg>
